HIERARCHY
ROOT Hips
{
    OFFSET 0.0 0.0 0.0
    CHANNELS 6 Xposition Yposition Zposition Zrotation Xrotation Yrotation
    JOINT LeftHipJoint
    {
        OFFSET 0.1 0.0 0.0
        CHANNELS 3 Zrotation Xrotation Yrotation
        JOINT LeftUpLeg
        {
            OFFSET 0.12160097062587738 0.0 0.0
            CHANNELS 3 Zrotation Xrotation Yrotation
            JOINT LeftLeg
            {
                OFFSET 0.0 0.0 -0.4276740550994873
                CHANNELS 3 Zrotation Xrotation Yrotation
                JOINT LeftFoot
                {
                    OFFSET 0.0 0.0 -0.3522098660469055
                    CHANNELS 3 Zrotation Xrotation Yrotation
                    End Site
                    {
                        OFFSET 0.0 -0.1 0.0
                    }
                }
            }
        }
    }
    JOINT LowerBack
    {
        OFFSET 0.0 0.0 0.1
        CHANNELS 3 Zrotation Xrotation Yrotation
        JOINT Spine
        {
            OFFSET 0.0 0.0 0.31921684741973877
            CHANNELS 3 Zrotation Xrotation Yrotation
            JOINT Spine1
            {
                OFFSET 0.0 0.0 0.31386318802833557
                CHANNELS 3 Zrotation Xrotation Yrotation
                JOINT LeftShoulder
                {
                    OFFSET 0.1 0.0 0.0
                    CHANNELS 3 Zrotation Xrotation Yrotation
                    JOINT LeftArm
                    {
                        OFFSET 0.1926540732383728 0.0 0.0
                        CHANNELS 3 Zrotation Xrotation Yrotation
                        JOINT LeftForeArm
                        {
                            OFFSET 0.2706642150878906 0.0 0.0
                            CHANNELS 3 Zrotation Xrotation Yrotation
                            JOINT LeftHand
                            {
                                OFFSET 0.2649575471878052 0.0 0.0
                                CHANNELS 3 Zrotation Xrotation Yrotation
                                End Site
                                {
                                    OFFSET 0.1 0.0 0.0
                                }
                            }
                        }
                    }
                }
                JOINT Neck
                {
                    OFFSET 0.0 0.0 0.1
                    CHANNELS 3 Zrotation Xrotation Yrotation
                    JOINT Neck1
                    {
                        OFFSET 0.0 0.0 0.16692572832107544
                        CHANNELS 3 Zrotation Xrotation Yrotation
                        End Site
                        {
                            OFFSET 0.0 0.0 0.16344915330410004
                        }
                    }
                }
                JOINT RightShoulder
                {
                    OFFSET -0.1 0.0 0.0
                    CHANNELS 3 Zrotation Xrotation Yrotation
                    JOINT RightArm
                    {
                        OFFSET -0.1926540732383728 0.0 0.0
                        CHANNELS 3 Zrotation Xrotation Yrotation
                        JOINT RightForeArm
                        {
                            OFFSET -0.2706642150878906 0.0 0.0
                            CHANNELS 3 Zrotation Xrotation Yrotation
                            JOINT RightHand
                            {
                                OFFSET -0.2649575471878052 0.0 0.0
                                CHANNELS 3 Zrotation Xrotation Yrotation
                                End Site
                                {
                                    OFFSET -0.1 0.0 0.0
                                }
                            }
                        }
                    }
                }
            }
        }
    }
    JOINT RightHipJoint
    {
        OFFSET -0.1 0.0 0.0
        CHANNELS 3 Zrotation Xrotation Yrotation
        JOINT RightUpLeg
        {
            OFFSET -0.12160097062587738 0.0 0.0
            CHANNELS 3 Zrotation Xrotation Yrotation
            JOINT RightLeg
            {
                OFFSET 0.0 0.0 -0.4276740550994873
                CHANNELS 3 Zrotation Xrotation Yrotation
                JOINT RightFoot
                {
                    OFFSET 0.0 0.0 -0.3522098660469055
                    CHANNELS 3 Zrotation Xrotation Yrotation
                    End Site
                    {
                        OFFSET 0.0 -0.1 0.0
                    }
                }
            }
        }
    }
}
MOTION
Frames: 4
Frame Time: 0.03333333333333333
-0.20958058536052704 -0.16237013041973114 -0.0 -142.02970515884996 81.5815105251574 -42.76535263740483 2.484808344893372e-16 0.0 0.0 -2.2464563097987797 -11.03423506544005 4.7674365483120535 -0.14442654428879845 2.706705402767671 -1.2346654204924024 -1.9878466759146977e-16 -6.896728590703373e-34 3.9756933518293955e-16 2.484808344893372e-16 0.0 0.0 0.07118199291453811 -2.4507669289879743 1.2083060527043405 -2.532862309416733 2.063145401500325e-06 1.7553561878016378e-07 3.9756933518293955e-16 -6.3611093629270335e-15 -7.951386703658792e-16 -125.49816014177959 13.889682787044949 89.86806448358105 -20.31480052954568 5.258900961444114e-06 1.3806893613964397e-07 -6.3611093629270335e-15 3.531125038440127e-31 -6.3611093629270335e-15 3.9756933518293955e-16 -6.3611093629270335e-15 -7.951386703658792e-16 178.56402979713096 9.594231757060042 -4.6921129331539095 3.9756933518293955e-16 -6.3611093629270335e-15 -7.951386703658792e-16 142.54994620253424 8.818469455513911 -99.58167283502547 29.618748611836747 1.2837462983306496e-06 2.2254676258754707e-06 0.0 3.1805546814635168e-15 0.0 2.484808344893372e-16 0.0 0.0 2.9220930462475616 -9.516537363873883 6.376268245698837 0.1887427753969324 1.0060690320601455 -1.951308100367485 7.951386703658792e-16 6.3611093629270335e-15 -4.4139062980501586e-32
-0.20192095637321472 -0.16346968710422516 0.0009949939558282495 -144.65598792547243 82.21604710916844 -40.089578080393736 -3.401081422072803e-16 -2.3599743146313103e-33 7.951386703658791e-16 -2.7916332324770163 -11.335198197227644 4.030609029273393 -0.1601506065900388 2.673512753906316 -0.7180703821172302 1.1034765745125397e-32 -6.3611093629270335e-15 1.987846675914698e-16 -3.401081422072803e-16 -2.3599743146313103e-33 7.951386703658791e-16 0.06394388650010352 -2.616527049097068 1.0533864377040787 -1.9841423827318303 -2.6000389259056643e-06 -3.1780249171056984e-07 0.0 0.0 7.951386703658792e-16 -123.9868145152198 13.965841926251354 89.5530156511139 -20.758979548879648 -2.965423479573928e-06 -8.806429292745424e-07 8.74652537402467e-15 -1.5902773407317582e-15 3.1805546814635168e-15 0.0 0.0 7.951386703658792e-16 178.28814150187537 9.752025747279777 -4.497159124637247 0.0 0.0 7.951386703658792e-16 142.9114501899954 9.109093498165151 -99.65264633114666 28.80601530017584 -1.5396185164435817e-06 1.1111610007074665e-06 -7.95138670365879e-15 4.413906298050159e-31 -6.361109362927033e-15 -3.401081422072803e-16 -2.3599743146313103e-33 7.951386703658791e-16 3.380246275130276 -9.910657688140251 5.3922898920944915 0.19841420737878576 1.1430090130107977 -0.9567405128284223 -7.95138670365879e-16 -6.361109362927032e-15 7.95138670365879e-16
-0.1949680596590042 -0.16435974836349487 0.0007157654035836458 -147.89550423123575 82.52721390818427 -36.693874591824915 2.4848083448933725e-16 0.0 0.0 -2.757334007976407 -11.282342023960028 3.2080425758555475 -0.17872053681186353 2.605613225316871 -0.18160996602830887 0.0 0.0 1.987846675914698e-16 2.4848083448933725e-16 0.0 0.0 0.04776237241395716 -2.5995342428534443 1.0094313367416703 -1.7181721126058351 1.1271756061334644e-06 1.1203005836013537e-07 3.975693351829397e-16 -1.3793457181406746e-33 -3.975693351829397e-16 -123.08094859003249 14.084073299236472 89.51628587639826 -21.035716142366752 -4.601891295924806e-06 -4.238164502955647e-07 7.951386703658792e-16 1.1034765745125397e-32 1.5902773407317584e-15 3.975693351829397e-16 -1.3793457181406746e-33 -3.975693351829397e-16 179.08252439465193 9.716701822625822 -4.207810491448897 3.975693351829397e-16 -1.3793457181406746e-33 -3.975693351829397e-16 144.3429993055605 9.061591878027329 -99.65030861096265 27.63797599180647 5.750614977189163e-06 2.875443303066769e-06 9.54166404439055e-15 0.0 0.0 2.4848083448933725e-16 0.0 0.0 3.1939286667359394 -10.10221692411342 4.283998769458618 0.20862230441881105 1.301256948369682 -0.1505042395861315 3.975693351829396e-16 -6.3611093629270335e-15 2.2069531490250793e-32
-0.1888124644756317 -0.16438156366348267 0.00027823809068650007 -150.86632406757522 82.73761359267677 -33.578416323632716 -4.9696166897867406e-17 -6.3611093629270335e-15 7.951386703658792e-16 -2.644733540813824 -11.22831973953974 2.6091933337760773 -0.19238074087576634 2.5176697652421764 0.046241163296770846 1.1034765745125397e-32 -6.3611093629270335e-15 1.987846675914698e-16 -4.9696166897867406e-17 -6.3611093629270335e-15 7.951386703658792e-16 0.03533465542990112 -2.5377760128728704 0.8775780234717074 -1.4114927376178912 2.7915886790791135e-06 4.6151082705442323e-07 -2.9817700138720465e-16 -1.034509288605506e-33 3.9756933518293955e-16 -122.23988685361499 14.160023378909846 89.41127536745766 -21.31262481878365 1.910606195164464e-06 -2.3884396188318277e-06 5.565970692561156e-15 1.5902773407317588e-15 1.5902773407317588e-15 -2.9817700138720465e-16 -1.034509288605506e-33 3.9756933518293955e-16 179.84241332519278 9.685721791116533 -4.162175407544286 -2.9817700138720465e-16 -1.034509288605506e-33 3.9756933518293955e-16 146.25384704129476 8.939236178846585 -99.8563158516921 26.392906860233364 -3.2118839972158337e-06 2.8872311222681593e-06 -1.5902773407317582e-15 0.0 0.0 -4.9696166897867406e-17 -6.3611093629270335e-15 7.951386703658792e-16 2.9874847350409555 -10.216419508826169 3.334257626298013 0.21547899809459037 1.4343176595349207 0.537369654033979 0.0 -6.3611093629270335e-15 0.0
